<?xml version="1.0" standalone="no"?>
<!DOCTYPE svg PUBLIC "-//W3C//DTD SVG 20010904//EN"
 "http://www.w3.org/TR/2001/REC-SVG-20010904/DTD/svg10.dtd">
<svg version="1.0" xmlns="http://www.w3.org/2000/svg"
 width="512.000000pt" height="512.000000pt" viewBox="0 0 512.000000 512.000000"
 preserveAspectRatio="xMidYMid meet">

<g transform="translate(0.000000,512.000000) scale(0.100000,-0.100000)"
fill="#000000" stroke="none">
<path d="M1289 4172 c-39 -20 -62 -41 -84 -77 l-30 -48 0 -433 c0 -433 0 -433
22 -455 29 -29 77 -29 106 0 22 21 22 24 25 439 2 409 3 417 23 435 30 24 54
21 78 -9 l21 -27 0 -1437 0 -1437 -21 -27 c-23 -30 -45 -33 -77 -10 l-22 15 0
875 c0 952 1 936 -54 950 -40 10 -74 -4 -91 -36 -14 -27 -15 -134 -13 -923 l3
-892 28 -47 c84 -143 292 -140 370 5 l22 42 0 1485 0 1485 -22 42 c-37 69
-113 113 -193 113 -22 0 -60 -12 -91 -28z"/>
<path d="M3110 4110 c-69 -12 -119 -51 -156 -120 -18 -33 -19 -81 -22 -1015
-2 -539 0 -999 3 -1023 10 -65 55 -97 110 -76 46 18 45 1 45 1058 0 1095 -4
1026 60 1026 64 0 60 93 60 -1400 0 -1489 4 -1400 -58 -1400 -57 0 -57 1 -62
244 -5 202 -7 226 -24 245 -24 27 -76 28 -107 2 -24 -19 -24 -19 -24 -253 0
-219 1 -235 22 -273 53 -99 159 -141 267 -105 45 14 112 87 125 136 15 54 15
2754 0 2807 -10 39 -66 110 -100 128 -30 16 -101 25 -139 19z"/>
<path d="M732 3797 c-50 -19 -102 -65 -123 -111 -18 -39 -19 -87 -19 -1126 0
-1034 1 -1087 19 -1126 36 -79 135 -133 218 -120 57 10 113 46 148 94 l30 44
3 1086 c2 778 0 1098 -8 1125 -6 22 -30 57 -53 81 -61 60 -140 80 -215 53z
m91 -148 c12 -7 25 -17 29 -23 10 -14 10 -2118 0 -2132 -24 -37 -91 -36 -106
1 -3 9 -6 490 -6 1069 0 827 3 1056 13 1068 10 13 25 22 45 27 2 1 13 -4 25
-10z"/>
<path d="M1884 3652 c-49 -23 -97 -79 -113 -131 -16 -55 -16 -1868 1 -1922 16
-56 70 -114 123 -135 99 -37 216 7 264 101 l26 49 0 946 0 946 -26 49 c-49 97
-178 142 -275 97z m128 -149 c17 -15 18 -58 18 -941 0 -847 -1 -927 -17 -944
-21 -24 -58 -23 -83 2 -20 20 -20 33 -20 940 0 907 0 920 20 940 24 24 57 26
82 3z"/>
<path d="M4235 3611 c-22 -10 -52 -31 -67 -47 -61 -65 -58 -19 -58 -1006 0
-858 1 -905 19 -943 72 -155 287 -168 371 -21 l30 51 -3 925 -2 925 -29 42
c-55 82 -172 115 -261 74z m127 -148 c17 -15 18 -56 18 -901 0 -810 -1 -887
-17 -904 -21 -24 -58 -23 -83 2 -20 20 -20 33 -20 900 0 867 0 880 20 900 24
24 57 26 82 3z"/>
<path d="M125 3291 c-22 -10 -52 -31 -67 -47 -59 -63 -58 -50 -58 -686 0 -542
2 -586 19 -623 22 -49 77 -99 126 -115 91 -30 208 16 252 99 l23 44 0 595 c0
580 -1 597 -21 638 -47 98 -173 142 -274 95z m127 -148 c17 -15 18 -46 18
-581 0 -512 -2 -567 -17 -584 -21 -24 -58 -23 -83 2 -20 20 -20 33 -20 580 0
547 0 560 20 580 24 24 57 26 82 3z"/>
<path d="M3665 3278 c-49 -17 -94 -56 -118 -101 l-22 -42 0 -575 0 -575 22
-42 c80 -148 296 -147 372 2 l26 49 0 571 0 570 -28 47 c-49 84 -166 128 -252
96z m103 -154 l22 -15 0 -549 0 -549 -22 -15 c-32 -23 -54 -20 -77 10 -21 26
-21 36 -21 554 0 518 0 528 21 554 23 30 45 33 77 10z"/>
<path d="M2475 3071 c-22 -10 -52 -31 -67 -47 -57 -61 -58 -71 -58 -466 0
-407 1 -412 73 -475 79 -69 195 -69 274 0 72 63 73 68 73 477 0 334 -2 368
-19 405 -49 106 -173 154 -276 106z m125 -151 c19 -19 20 -33 20 -360 0 -327
-1 -341 -20 -360 -11 -11 -29 -20 -40 -20 -11 0 -29 9 -40 20 -19 19 -20 33
-20 360 0 327 1 341 20 360 11 11 29 20 40 20 11 0 29 -9 40 -20z"/>
<path d="M4836 2946 c-47 -18 -92 -59 -117 -108 -17 -34 -19 -61 -19 -278 0
-270 3 -286 74 -348 110 -96 287 -45 335 97 15 46 15 456 0 502 -37 110 -166
174 -273 135z m108 -157 l26 -21 -2 -210 -3 -211 -28 -21 c-26 -19 -30 -19
-55 -5 l-27 15 -3 219 c-3 214 -2 220 19 238 28 22 41 22 73 -4z"/>
</g>
</svg>
