<svg width="400" height="160" viewBox="0 0 400 160" fill="none" xmlns="http://www.w3.org/2000/svg">
  <rect width="400" height="160" rx="24" fill="black" />
  <circle cx="100" cy="80" r="32" stroke="white" stroke-width="10" fill="none" />
  <path d="M116 96L148 120" stroke="white" stroke-width="10" stroke-linecap="round" />
  <path d="M148 120L164 136" stroke="white" stroke-width="10" stroke-linecap="round" />
  <path d="M70 80H92" stroke="white" stroke-width="8" stroke-linecap="round" />
  <path d="M56 72H92" stroke="white" stroke-width="6" stroke-linecap="round" />
  <path d="M56 88H92" stroke="white" stroke-width="6" stroke-linecap="round" />
  <path d="M160 52L176 52" stroke="white" stroke-width="8" stroke-linecap="round" />
  <path d="M160 68L184 68" stroke="white" stroke-width="8" stroke-linecap="round" />
  <path d="M160 84L176 84" stroke="white" stroke-width="8" stroke-linecap="round" />
  <path d="M60 68L76 68" stroke="white" stroke-width="4" stroke-linecap="round" />
  <text x="204" y="52" fill="white" font-family="Inter, sans-serif" font-size="22" font-weight="700">ToneLens</text>
  <text x="204" y="82" fill="#F4A3A1" font-family="Inter, sans-serif" font-size="12" letter-spacing="0.3em">TRANSCRIVE · ANALISA · PROTEGE</text>
  <path d="M210 112h120" stroke="#F4A3A1" stroke-width="4" stroke-linecap="round" />
  <path d="M220 96v32" stroke="white" stroke-width="8" />
  <path d="M240 104v24" stroke="white" stroke-width="8" />
  <path d="M260 92v36" stroke="white" stroke-width="8" />
  <path d="M280 100v28" stroke="white" stroke-width="8" />
</svg>
